<svg xmlns="http://www.w3.org/2000/svg" xmlns:xlink="http://www.w3.org/1999/xlink" width="500" zoomAndPan="magnify" viewBox="0 0 375 74.999997" height="100" preserveAspectRatio="xMidYMid meet" version="1.0"><defs><g/><clipPath id="c7c0e1d435"><path d="M 15 16 L 62.25 16 L 62.25 75 L 15 75 Z M 15 16 " clip-rule="nonzero"/></clipPath><clipPath id="16c7289a73"><path d="M 10.5 0 L 41 0 L 41 71 L 10.5 71 Z M 10.5 0 " clip-rule="nonzero"/></clipPath></defs><g clip-path="url(#c7c0e1d435)"><path fill="#fafafa" d="M 29.078125 21.867188 L 15.679688 65.636719 C 15.101562 67.523438 15.855469 69.28125 17.398438 69.539062 L 50.027344 74.953125 C 52.171875 75.304688 54.222656 73.679688 54.5625 71.351562 L 62.195312 19.347656 C 62.410156 17.894531 61.160156 16.855469 59.421875 17.003906 L 32.179688 19.375 C 30.84375 19.5 29.46875 20.601562 29.078125 21.867188 Z M 49.332031 20.242188 C 49.269531 20.457031 49.152344 20.628906 48.980469 20.769531 C 48.808594 20.90625 48.613281 20.984375 48.394531 21 L 39.394531 21.664062 C 39.3125 21.679688 39.230469 21.675781 39.148438 21.648438 C 39.070312 21.625 39 21.578125 38.945312 21.515625 C 38.886719 21.453125 38.847656 21.378906 38.832031 21.296875 C 38.8125 21.210938 38.816406 21.128906 38.84375 21.050781 C 38.910156 20.851562 39.023438 20.6875 39.183594 20.558594 C 39.347656 20.429688 39.53125 20.351562 39.738281 20.332031 L 48.679688 19.625 C 49.125 19.589844 49.414062 19.871094 49.332031 20.253906 Z M 31.695312 65.554688 C 31.820312 65.042969 32.28125 64.675781 32.722656 64.734375 L 35.5 65.097656 C 35.960938 65.15625 36.234375 65.628906 36.117188 66.148438 L 35.386719 69.414062 C 35.265625 69.957031 34.785156 70.34375 34.320312 70.261719 L 31.507812 69.824219 C 31.046875 69.753906 30.796875 69.269531 30.925781 68.742188 Z M 30.753906 24.796875 C 30.859375 24.488281 31.042969 24.230469 31.296875 24.027344 C 31.550781 23.820312 31.84375 23.699219 32.167969 23.664062 L 57.019531 22.003906 C 57.789062 21.953125 58.332031 22.445312 58.226562 23.105469 L 51.828125 62.21875 C 51.792969 62.441406 51.71875 62.652344 51.605469 62.847656 C 51.492188 63.046875 51.347656 63.214844 51.171875 63.355469 C 50.992188 63.496094 50.796875 63.597656 50.582031 63.664062 C 50.363281 63.730469 50.144531 63.757812 49.917969 63.738281 L 21.554688 60.445312 C 20.859375 60.363281 20.511719 59.648438 20.75 58.847656 Z M 30.753906 24.796875 " fill-opacity="1" fill-rule="nonzero"/></g><path fill="#ffffff" d="M 37.695312 20.265625 C 36.933594 20.226562 36.171875 20.238281 35.417969 20.265625 C 35.039062 20.265625 34.660156 20.304688 34.28125 20.324219 L 33.152344 20.410156 L 32.585938 20.460938 L 32.300781 20.488281 C 32.195312 20.5 32.089844 20.519531 31.984375 20.550781 C 31.582031 20.671875 31.230469 20.875 30.925781 21.171875 C 30.613281 21.449219 30.398438 21.789062 30.277344 22.191406 C 30.191406 22.574219 30.121094 22.9375 30.058594 23.324219 C 30.226562 22.976562 30.367188 22.625 30.523438 22.273438 C 30.679688 21.953125 30.902344 21.683594 31.191406 21.472656 C 31.46875 21.257812 31.777344 21.105469 32.117188 21.023438 C 32.195312 21.003906 32.269531 20.992188 32.347656 20.988281 L 32.628906 20.964844 L 33.199219 20.917969 L 34.328125 20.804688 C 34.703125 20.757812 35.078125 20.722656 35.453125 20.667969 C 36.203125 20.558594 36.949219 20.429688 37.695312 20.265625 Z M 37.695312 20.265625 " fill-opacity="1" fill-rule="nonzero"/><path fill="#fafafa" d="M 51.179688 53.589844 L 55.816406 24.9375 C 55.839844 24.792969 55.828125 24.652344 55.789062 24.511719 C 55.75 24.375 55.679688 24.25 55.585938 24.144531 C 55.488281 24.035156 55.375 23.953125 55.242188 23.898438 C 55.109375 23.839844 54.972656 23.816406 54.828125 23.824219 L 47.679688 24.167969 L 54.230469 24.789062 C 54.351562 24.808594 54.453125 24.867188 54.53125 24.964844 C 54.605469 25.066406 54.636719 25.179688 54.621094 25.304688 Z M 51.179688 53.589844 " fill-opacity="1" fill-rule="nonzero"/><path fill="#ffffff" d="M 55.828125 55.484375 L 53.144531 70.488281 C 53.066406 70.914062 52.914062 71.3125 52.679688 71.679688 C 52.449219 72.046875 52.15625 72.355469 51.804688 72.609375 C 51.453125 72.863281 51.066406 73.042969 50.644531 73.144531 C 50.226562 73.25 49.800781 73.269531 49.371094 73.207031 L 39.453125 71.765625 L 48.917969 72.148438 C 49.300781 72.164062 49.679688 72.117188 50.042969 72 C 50.410156 71.886719 50.75 71.714844 51.054688 71.484375 C 51.363281 71.25 51.625 70.976562 51.835938 70.65625 C 52.050781 70.332031 52.203125 69.984375 52.296875 69.613281 Z M 55.828125 55.484375 " fill-opacity="1" fill-rule="nonzero"/><path fill="#ffb200" d="M 32.699219 39.632812 L 38.90625 32.546875 L 33.441406 68.714844 L 30.113281 47.714844 L 25.148438 51.980469 L 11.710938 1.171875 L 18.160156 2.757812 L 24.828125 4.394531 L 31.449219 6.023438 Z M 32.699219 39.632812 " fill-opacity="1" fill-rule="nonzero"/><path fill="#ffee00" d="M 32.699219 39.632812 L 38.90625 32.546875 L 33.441406 68.714844 L 30.296875 47.082031 L 27.824219 49.53125 L 18.160156 2.757812 L 24.828125 4.394531 L 31.449219 6.023438 Z M 32.699219 39.632812 " fill-opacity="1" fill-rule="nonzero"/><path fill="#ffffff" d="M 32.699219 39.632812 L 38.90625 32.546875 L 33.441406 68.714844 L 33.496094 42.652344 L 30.335938 45.371094 L 24.828125 4.394531 L 31.449219 6.023438 Z M 32.699219 39.632812 " fill-opacity="1" fill-rule="nonzero"/><g clip-path="url(#16c7289a73)"><path fill="#fafafa" d="M 33.472656 37.457031 L 32.273438 5.339844 L 10.519531 0 L 24.671875 53.515625 L 29.511719 49.355469 L 32.882812 70.640625 L 34.054688 70.328125 L 40.179688 29.792969 Z M 30.714844 46.070312 L 25.628906 50.449219 L 12.902344 2.34375 L 30.621094 6.699219 L 31.929688 41.8125 L 37.625 35.3125 L 33.414062 63.144531 Z M 30.714844 46.070312 " fill-opacity="1" fill-rule="nonzero"/></g><g fill="#ffffff" fill-opacity="1"><g transform="translate(69.787671, 55.765015)"><g><path d="M 3.449219 0 L 12.777344 0 L 12.777344 -16.554688 L 19.074219 -7.742188 L 25.183594 -7.742188 L 31.433594 -16.507812 L 31.433594 0 L 40.761719 0 L 40.761719 -32.644531 L 33.113281 -32.644531 L 22.105469 -17.117188 L 11.144531 -32.644531 L 3.449219 -32.644531 Z M 3.449219 0 "/></g></g></g><g fill="#ffffff" fill-opacity="1"><g transform="translate(118.55534, 55.765015)"><g><path d="M 0.234375 0 L 10.214844 0 L 11.984375 -4.617188 L 23.132812 -4.617188 L 24.902344 0 L 34.929688 0 L 22.246094 -32.644531 L 12.917969 -32.644531 Z M 13.945312 -11.519531 L 17.582031 -21.640625 L 21.21875 -11.519531 Z M 13.945312 -11.519531 "/></g></g></g><g fill="#ffffff" fill-opacity="1"><g transform="translate(158.278449, 55.765015)"><g><path d="M 10.726562 0 L 20.101562 0 L 26.023438 -18.140625 L 31.945312 0 L 41.320312 0 L 51.8125 -32.644531 L 41.925781 -32.644531 L 39.640625 -25.371094 L 36.285156 -14.925781 L 30.5 -32.644531 L 21.546875 -32.644531 L 19.121094 -25.371094 L 15.808594 -15.203125 L 12.5 -25.371094 L 10.214844 -32.644531 L 0.234375 -32.644531 Z M 10.726562 0 "/></g></g></g><g fill="#ffffff" fill-opacity="1"><g transform="translate(214.878526, 55.765015)"><g><path d="M 1.492188 0 L 7.230469 0 C 15.671875 0 20.332031 -4.335938 20.332031 -12.59375 L 20.332031 -32.644531 L 10.914062 -32.644531 L 10.914062 -13.339844 C 10.914062 -10.074219 9.5625 -8.722656 6.4375 -8.722656 L 1.492188 -8.722656 Z M 1.492188 0 "/></g></g></g><g fill="#ffffff" fill-opacity="1"><g transform="translate(243.179352, 55.765015)"><g><path d="M 19.355469 0.699219 C 29.753906 0.699219 37.125 -6.34375 37.125 -16.324219 C 37.125 -26.304688 29.753906 -33.34375 19.355469 -33.34375 C 8.953125 -33.34375 1.585938 -26.304688 1.585938 -16.324219 C 1.585938 -6.34375 8.953125 0.699219 19.355469 0.699219 Z M 11.144531 -16.324219 C 11.144531 -21.21875 14.550781 -24.625 19.355469 -24.625 C 24.203125 -24.625 27.5625 -21.21875 27.5625 -16.324219 C 27.5625 -11.425781 24.203125 -8.023438 19.355469 -8.023438 C 14.550781 -8.023438 11.144531 -11.425781 11.144531 -16.324219 Z M 11.144531 -16.324219 "/></g></g></g><g fill="#ffffff" fill-opacity="1"><g transform="translate(286.492316, 55.765015)"><g><path d="M 19.355469 0.699219 C 29.753906 0.699219 37.125 -6.34375 37.125 -16.324219 C 37.125 -26.304688 29.753906 -33.34375 19.355469 -33.34375 C 8.953125 -33.34375 1.585938 -26.304688 1.585938 -16.324219 C 1.585938 -6.34375 8.953125 0.699219 19.355469 0.699219 Z M 11.144531 -16.324219 C 11.144531 -21.21875 14.550781 -24.625 19.355469 -24.625 C 24.203125 -24.625 27.5625 -21.21875 27.5625 -16.324219 C 27.5625 -11.425781 24.203125 -8.023438 19.355469 -8.023438 C 14.550781 -8.023438 11.144531 -11.425781 11.144531 -16.324219 Z M 11.144531 -16.324219 "/></g></g></g><g fill="#ffffff" fill-opacity="1"><g transform="translate(329.80528, 55.765015)"><g><path d="M 3.449219 0 L 17.300781 0 C 27.84375 0 34.839844 -6.484375 34.839844 -16.324219 C 34.839844 -26.117188 27.84375 -32.644531 17.300781 -32.644531 L 3.449219 -32.644531 Z M 12.871094 -8.441406 L 12.871094 -24.203125 L 17.023438 -24.203125 C 22.011719 -24.203125 25.230469 -21.125 25.230469 -16.324219 C 25.230469 -11.519531 22.011719 -8.441406 17.023438 -8.441406 Z M 12.871094 -8.441406 "/></g></g></g></svg>